<?xml version="1.0" standalone="no"?>
<!DOCTYPE svg PUBLIC "-//W3C//DTD SVG 20010904//EN"
 "http://www.w3.org/TR/2001/REC-SVG-20010904/DTD/svg10.dtd">
<svg version="1.0" xmlns="http://www.w3.org/2000/svg"
 width="1080.000000pt" height="1115.000000pt" viewBox="0 0 1080.000000 1115.000000"
 preserveAspectRatio="xMidYMid meet">

<g transform="translate(0.000000,1115.000000) scale(0.100000,-0.100000)"
fill="#000000" stroke="none">
<path d="M150 5510 l0 -5250 5250 0 5250 0 0 5250 0 5250 -5250 0 -5250 0 0
-5250z m10390 0 l0 -5140 -5140 0 -5140 0 -2 5132 c-2 3639 0 5135 8 5142 7 8
1503 10 5142 8 l5132 -2 0 -5140z"/>
<path d="M4085 8901 c-65 -39 -105 -111 -105 -186 0 -34 32 -110 58 -138 45
-50 150 -72 219 -46 37 14 81 56 103 99 l18 35 261 -3 261 -3 0 -53 0 -53 -64
-11 c-142 -23 -258 -111 -321 -244 -19 -39 -38 -93 -41 -119 l-6 -48 -47 6
c-107 12 -249 -43 -335 -130 -84 -85 -136 -208 -136 -319 l0 -48 -200 0 -200
0 0 290 c0 248 2 290 15 290 23 0 84 59 107 103 29 58 22 150 -15 204 -74 107
-215 120 -304 27 -67 -69 -79 -144 -38 -232 19 -40 36 -60 75 -84 l50 -31 0
-318 c0 -306 1 -320 20 -339 19 -19 33 -20 264 -20 l244 0 16 -40 c9 -22 27
-58 41 -80 14 -22 25 -41 25 -43 0 -2 -17 -9 -39 -15 -51 -16 -143 -79 -185
-128 -66 -77 -115 -212 -116 -316 l0 -38 -49 0 c-43 0 -51 3 -56 23 -22 72
-102 127 -184 127 -61 0 -97 -13 -135 -48 -96 -90 -85 -251 22 -326 91 -64
216 -37 277 60 l28 44 63 0 63 0 24 -52 c45 -97 175 -215 257 -233 17 -4 30
-9 30 -11 0 -2 -11 -22 -25 -43 -41 -61 -67 -140 -72 -221 -14 -199 90 -381
264 -463 57 -26 83 -32 161 -35 70 -3 92 -8 92 -18 0 -12 -69 -14 -414 -14
l-414 0 -27 45 c-65 112 -206 139 -296 58 -56 -50 -72 -87 -73 -158 0 -67 11
-94 58 -143 39 -42 85 -62 142 -62 78 0 136 37 175 113 l19 37 230 0 231 0 -2
-145 -1 -145 -35 -15 c-40 -17 -75 -51 -98 -94 -95 -184 121 -381 289 -264
110 76 115 245 10 331 -21 18 -44 32 -51 32 -10 0 -13 35 -13 150 l0 150 144
0 144 0 31 -65 c18 -39 54 -90 87 -126 233 -243 612 -147 725 183 19 56 22 86
23 259 1 210 -3 229 -50 229 -49 0 -54 -18 -54 -204 0 -121 -4 -189 -15 -231
-30 -117 -124 -214 -243 -252 -103 -33 -248 15 -326 108 -55 64 -81 136 -81
221 0 72 2 79 25 95 92 64 155 156 185 268 21 82 19 131 -5 155 -25 25 -32 25
-61 2 -17 -14 -24 -34 -29 -79 -15 -121 -84 -223 -185 -273 -71 -36 -200 -36
-268 -1 -115 59 -178 163 -185 301 -6 121 18 181 109 274 38 39 69 79 69 88 0
37 -36 58 -97 58 -32 0 -80 8 -107 17 -65 24 -149 106 -184 180 -23 50 -27 71
-27 153 0 82 4 103 26 151 36 76 89 133 157 166 48 24 69 28 137 27 66 0 89
-4 130 -26 102 -53 170 -151 186 -266 10 -70 19 -88 51 -98 33 -10 58 22 58
76 0 178 -150 374 -315 414 -39 10 -110 68 -140 115 -60 96 -74 230 -34 337
16 43 38 75 83 120 65 65 118 90 211 100 65 7 95 -10 110 -61 32 -107 110
-214 192 -262 56 -33 154 -63 204 -63 31 0 42 5 56 26 15 24 15 29 2 53 -11
20 -26 28 -64 34 -129 22 -221 89 -270 198 -24 55 -27 71 -23 143 7 141 74
247 190 306 52 26 73 30 138 30 61 0 86 -5 127 -25 68 -34 137 -110 176 -193
32 -67 32 -67 37 -275 4 -170 8 -210 20 -217 21 -14 43 -12 65 4 17 12 20 30
23 142 5 156 -9 289 -38 366 -48 128 -158 248 -262 286 l-48 17 0 102 c0 154
26 143 -340 143 -240 0 -300 3 -300 13 0 23 -49 81 -88 104 -49 30 -152 32
-197 4z m162 -112 c30 -29 38 -71 19 -108 -20 -37 -44 -51 -88 -51 -66 0 -110
80 -78 140 27 50 103 60 147 19z m-687 -315 c36 -35 35 -98 -3 -130 -61 -53
-157 -14 -157 63 0 46 15 72 53 89 40 17 75 10 107 -22z m-78 -1591 c60 -57
22 -158 -60 -158 -73 0 -115 65 -87 131 25 61 98 74 147 27z m7 -1197 c27 -14
51 -53 51 -82 0 -28 -28 -70 -55 -82 -42 -19 -74 -14 -106 17 -46 47 -38 115
19 145 34 19 56 20 91 2z m721 -561 c47 -43 26 -135 -35 -155 -26 -9 -41 -8
-68 4 -65 27 -78 97 -27 148 27 27 36 30 71 25 22 -3 49 -13 59 -22z"/>
<path d="M7100 8908 c-107 -30 -170 -146 -140 -256 13 -50 67 -114 110 -132
l30 -12 0 -319 0 -319 -153 0 -152 0 -24 45 c-31 59 -122 142 -194 179 l-57
28 0 188 0 188 29 11 c67 28 121 115 121 193 -1 106 -99 208 -200 208 -97 0
-199 -102 -200 -200 0 -82 54 -173 120 -200 l30 -12 0 -178 0 -177 -31 -7
c-62 -12 -65 -10 -77 50 -37 184 -185 329 -363 354 -190 27 -368 -75 -459
-264 -49 -101 -60 -169 -60 -366 0 -169 8 -200 54 -200 49 0 54 20 58 235 5
248 16 284 118 386 81 82 136 104 244 97 117 -8 209 -71 267 -184 32 -63 34
-74 34 -163 0 -87 -3 -101 -29 -148 -55 -100 -145 -165 -246 -178 -61 -8 -90
-27 -90 -60 0 -56 64 -69 173 -35 130 40 243 155 284 289 10 31 22 59 28 63 5
4 42 8 80 8 193 0 334 -163 323 -374 -5 -97 -28 -151 -95 -226 -35 -39 -57
-53 -98 -65 -60 -18 -156 -77 -196 -121 -73 -79 -122 -203 -117 -292 3 -49 6
-58 30 -72 26 -14 29 -13 46 5 12 12 24 47 30 88 30 187 170 309 339 294 79
-8 132 -33 194 -94 173 -168 130 -460 -84 -573 -47 -24 -69 -30 -122 -30 -52
0 -69 -4 -85 -20 -33 -33 -25 -58 36 -114 114 -104 151 -239 105 -386 -41
-132 -147 -219 -276 -228 -93 -6 -142 9 -217 66 -74 57 -114 125 -130 227 -12
76 -19 90 -48 98 -31 8 -60 -28 -60 -76 0 -114 49 -217 154 -321 l79 -80 -6
-68 c-11 -131 -80 -234 -195 -290 -58 -29 -77 -33 -142 -33 -55 0 -87 6 -120
21 -72 33 -143 104 -176 176 -28 62 -29 66 -32 263 -4 216 -9 235 -58 235 -46
0 -54 -31 -54 -200 0 -85 5 -184 11 -220 24 -152 137 -299 270 -352 l64 -26 5
-94 c3 -59 10 -101 19 -112 12 -14 54 -16 415 -16 l401 0 25 -46 c56 -107 192
-135 293 -60 37 27 77 110 77 161 0 60 -43 140 -93 173 -34 23 -52 27 -107 27
-83 0 -134 -30 -170 -99 l-25 -46 -362 0 -363 0 0 49 0 48 60 12 c132 26 253
121 314 245 19 39 37 88 40 109 19 120 13 110 55 103 50 -8 151 10 214 38 71
31 167 122 205 193 82 156 81 317 -3 471 -40 71 -40 72 -21 72 27 0 132 62
174 103 24 23 60 68 79 100 l36 57 128 0 129 0 0 -289 0 -288 -50 -31 c-111
-69 -131 -215 -44 -312 20 -21 56 -47 81 -56 89 -34 199 11 242 99 23 46 28
127 11 171 -14 37 -77 103 -105 110 l-24 6 -3 336 c-3 319 -4 336 -22 350 -15
11 -56 14 -169 14 l-150 0 6 48 c8 66 -15 188 -48 252 -52 102 -168 200 -267
225 l-27 7 33 51 c52 82 71 149 71 254 l0 93 171 0 c119 0 174 4 182 12 9 9
12 106 12 375 0 292 3 363 13 363 27 0 96 62 116 103 76 157 -67 341 -229 295z
m105 -124 c30 -20 49 -73 36 -105 -20 -54 -72 -77 -124 -55 -41 17 -57 42 -57
88 1 72 83 113 145 72z m-683 -5 c11 -6 26 -26 34 -45 12 -29 12 -39 0 -68
-39 -94 -176 -66 -176 36 0 71 76 112 142 77z m879 -2759 c29 -16 51 -67 44
-100 -8 -38 -59 -80 -95 -80 -41 0 -90 49 -90 90 0 37 27 87 49 93 31 9 73 7
92 -3z m-532 -886 c26 -21 31 -33 31 -69 0 -36 -5 -48 -32 -70 -26 -22 -39
-26 -66 -21 -87 14 -115 105 -51 165 32 29 80 27 118 -5z"/>
<path d="M5116 7624 c-12 -12 -16 -37 -16 -110 l0 -94 -76 0 c-134 0 -183 -54
-184 -202 0 -55 -4 -78 -12 -79 -7 0 -47 -1 -88 -1 -63 -1 -77 -5 -97 -24 -29
-29 -29 -39 2 -69 22 -23 32 -25 110 -25 l85 0 0 -55 0 -55 -95 0 c-88 0 -96
-2 -110 -24 -18 -27 -7 -69 20 -80 9 -3 55 -6 101 -6 l84 0 0 -55 0 -55 -95 0
c-88 0 -96 -2 -110 -24 -18 -27 -7 -69 20 -80 9 -3 54 -6 99 -6 l83 0 5 -70
c9 -120 54 -160 181 -160 l77 0 0 -95 c0 -82 3 -98 20 -115 25 -25 41 -25 68
0 20 19 22 31 22 116 l0 95 53 -3 52 -3 3 -98 c3 -91 4 -98 27 -113 23 -15 27
-15 50 0 24 16 25 21 25 116 l0 100 55 0 55 0 0 -86 c0 -91 8 -117 41 -134 16
-9 26 -8 44 4 23 15 24 23 27 113 l3 98 85 5 c48 4 95 12 108 20 39 25 62 88
62 168 l0 72 94 0 c87 0 96 2 110 22 42 59 8 86 -109 90 l-90 3 -3 53 -3 52
88 0 c98 0 133 14 133 54 0 44 -28 56 -128 56 l-92 0 0 55 0 55 90 0 c77 0 93
3 110 20 25 25 26 52 2 73 -13 12 -42 17 -107 19 l-90 3 -5 80 c-9 133 -53
175 -185 175 l-75 0 0 94 c0 105 -12 130 -59 124 -37 -4 -51 -40 -51 -135 l0
-83 -55 0 -55 0 0 98 c0 106 -7 122 -50 122 -43 0 -50 -16 -50 -122 l0 -98
-55 0 -55 0 0 93 c0 78 -3 97 -18 110 -23 21 -56 22 -76 1z m663 -328 c8 -9
10 -129 9 -422 l-3 -409 -409 -3 c-321 -2 -411 0 -418 10 -13 22 -10 812 4
826 19 19 801 17 817 -2z"/>
<path d="M5047 7212 c-15 -17 -17 -55 -17 -340 0 -320 0 -321 22 -336 19 -14
67 -16 321 -16 l298 0 25 25 25 25 -3 316 c-3 299 -4 316 -22 330 -16 11 -78
14 -326 14 -285 0 -308 -1 -323 -18z m563 -332 l0 -240 -240 0 -240 0 0 240 0
240 240 0 240 0 0 -240z"/>
<path d="M3170 3645 c0 -31 3 -35 25 -35 l25 0 0 -225 0 -225 -25 0 c-22 0
-25 -4 -25 -35 l0 -36 93 3 92 3 3 33 c3 30 1 32 -28 32 l-31 0 3 83 3 82 93
2 93 2 40 43 c39 43 39 43 39 128 l0 85 -42 48 -43 47 -157 0 -158 0 0 -35z
m298 -58 c16 -17 22 -37 23 -85 3 -89 -11 -102 -113 -102 l-78 0 0 98 c0 54 3
102 7 105 3 4 36 7 73 7 56 0 70 -4 88 -23z"/>
<path d="M3814 3666 c-11 -29 1 -51 29 -54 l27 -3 0 -224 0 -224 -27 -3 c-24
-3 -28 -8 -28 -33 l0 -30 90 0 90 0 3 33 c3 29 1 32 -22 32 l-26 0 0 95 0 95
115 0 115 0 0 -95 0 -95 -26 0 c-23 0 -25 -3 -22 -32 l3 -33 90 0 90 0 3 33
c3 30 1 32 -27 32 l-31 0 0 225 0 225 31 0 c28 0 30 2 27 33 l-3 32 -92 3 -93
3 0 -36 c0 -31 3 -35 25 -35 25 0 25 0 25 -95 l0 -95 -115 0 -115 0 0 95 c0
95 0 95 25 95 22 0 25 4 25 35 l0 35 -90 0 c-70 0 -92 -3 -96 -14z"/>
<path d="M4870 3646 c0 -30 3 -35 28 -38 l27 -3 0 -220 0 -220 -27 -3 c-25 -3
-28 -8 -28 -38 l0 -35 93 3 92 3 3 33 c3 30 1 32 -27 32 l-31 0 0 95 0 95 120
0 120 0 0 -94 0 -95 -27 -3 c-24 -3 -28 -8 -28 -33 l0 -30 90 0 90 0 3 33 c3
29 1 32 -22 32 l-26 0 0 225 0 225 25 0 c22 0 25 4 25 35 l0 36 -92 -3 -93 -3
-3 -32 c-3 -31 -1 -33 27 -33 l31 0 0 -95 0 -95 -120 0 -120 0 0 95 0 95 31 0
c28 0 30 2 27 33 l-3 32 -92 3 -93 3 0 -35z"/>
<path d="M5484 3586 c-10 -26 1 -51 24 -54 22 -3 22 -5 22 -176 l0 -172 45
-44 45 -44 106 -3 106 -3 39 42 39 43 2 175 c3 173 3 175 26 178 18 3 22 10
22 38 l0 34 -91 0 -90 0 3 -32 c2 -28 8 -34 31 -36 l27 -3 0 -163 c0 -157 -1
-163 -23 -184 -19 -18 -35 -22 -93 -22 -61 0 -73 3 -93 23 -21 23 -21 31 -19
183 3 154 4 159 24 162 23 3 33 24 26 55 -3 14 -16 17 -88 17 -64 0 -86 -3
-90 -14z"/>
<path d="M6168 3595 c-9 -10 5 -65 17 -65 8 0 -4 -47 -36 -142 -27 -79 -53
-152 -59 -163 -5 -11 -12 -30 -15 -42 -4 -13 -14 -23 -25 -23 -12 0 -19 -9
-22 -30 -5 -37 3 -40 97 -37 l70 2 3 33 c3 29 1 32 -22 32 -30 0 -30 0 -14 51
l11 39 99 0 c108 0 100 4 122 -67 6 -20 4 -23 -19 -23 -24 0 -26 -3 -23 -32
l3 -33 64 -3 c92 -5 113 2 109 35 -2 19 -10 29 -27 33 -18 4 -27 18 -41 63
-10 32 -25 72 -33 90 -8 18 -28 72 -43 121 -22 66 -26 90 -16 93 6 3 12 20 12
39 l0 34 -103 0 c-57 0 -106 -2 -109 -5z m142 -177 c16 -48 30 -89 30 -92 0
-3 -29 -6 -65 -6 -48 0 -65 4 -65 13 0 29 58 182 66 174 2 -1 17 -42 34 -89z"/>
<path d="M6590 3565 c0 -32 2 -35 30 -35 l30 0 0 -185 0 -185 -30 0 c-26 0
-30 -3 -30 -29 0 -36 8 -39 105 -37 l80 1 3 33 c3 29 1 32 -22 32 l-26 0 0
168 0 167 23 -40 c13 -22 61 -110 107 -195 46 -85 89 -158 95 -163 5 -4 32 -6
58 -5 l48 3 2 215 2 215 28 3 c24 3 27 8 27 38 l0 34 -95 0 -95 0 0 -34 c0
-30 3 -35 28 -38 l27 -3 3 -140 c1 -77 0 -151 -4 -165 l-7 -25 -14 30 c-8 17
-56 107 -106 200 l-92 170 -87 3 -88 3 0 -36z"/>
<path d="M7272 3557 l-42 -43 0 -164 0 -165 42 -45 43 -45 101 -3 102 -4 41
43 41 43 0 93 0 93 -85 0 -85 0 0 -35 0 -35 55 0 55 0 0 -37 c0 -26 -8 -45
-27 -65 -24 -25 -33 -28 -93 -28 -57 0 -70 3 -88 23 -20 22 -22 33 -22 163 0
175 5 184 107 184 59 0 70 -3 95 -27 20 -19 28 -37 28 -60 0 -30 3 -33 30 -33
30 0 30 1 30 55 0 51 -3 58 -40 95 l-40 40 -103 0 -103 0 -42 -43z"/>
<path d="M3632 3143 l3 -48 40 0 40 0 3 48 3 47 -46 0 -46 0 3 -47z"/>
<path d="M4412 3143 l3 -47 40 -1 40 0 3 48 3 47 -46 0 -46 0 3 -47z"/>
<path d="M4557 2483 c-25 -7 -50 -59 -38 -81 16 -30 44 -49 98 -66 61 -20 77
-37 69 -70 -11 -46 -95 -50 -136 -6 -33 35 -40 37 -40 11 0 -32 56 -71 101
-71 45 0 94 21 103 45 20 54 -4 88 -85 115 -65 22 -91 44 -82 67 17 46 88 58
123 21 11 -12 20 -25 20 -30 0 -4 7 -8 15 -8 24 0 18 29 -11 55 -21 20 -37 25
-73 24 -25 -1 -54 -3 -64 -6z"/>
<path d="M5040 2474 c0 -9 5 -14 12 -12 18 6 21 28 4 28 -9 0 -16 -7 -16 -16z"/>
<path d="M5820 2475 c0 -8 7 -15 15 -15 8 0 15 7 15 15 0 8 -7 15 -15 15 -8 0
-15 -7 -15 -15z"/>
<path d="M5670 2445 c0 -18 -5 -25 -20 -25 -11 0 -20 -5 -20 -11 0 -6 9 -13
20 -16 18 -5 20 -14 20 -80 0 -86 11 -113 45 -113 34 0 41 18 11 30 -25 9 -26
13 -26 84 0 65 2 74 20 79 11 3 20 10 20 16 0 6 -9 11 -20 11 -15 0 -20 7 -20
25 0 16 -6 25 -15 25 -9 0 -15 -9 -15 -25z"/>
<path d="M6190 2445 c0 -18 -5 -25 -20 -25 -11 0 -20 -7 -20 -15 0 -8 9 -15
20 -15 18 0 20 -7 20 -76 0 -91 10 -114 50 -114 36 0 42 27 8 32 -21 3 -23 9
-26 79 -3 75 -2 77 23 83 29 7 25 26 -6 26 -14 0 -19 7 -19 25 0 16 -6 25 -15
25 -9 0 -15 -9 -15 -25z"/>
<path d="M4815 2398 c-28 -25 -42 -80 -31 -123 10 -40 53 -75 92 -75 41 0 88
37 82 65 -3 18 -5 18 -28 -7 -46 -54 -120 -24 -120 48 0 19 5 44 11 55 21 41
92 46 104 8 7 -21 35 -26 35 -6 0 8 -10 23 -23 35 -31 30 -88 29 -122 0z"/>
<path d="M5042 2313 c4 -140 23 -141 23 -1 0 74 -4 103 -13 106 -10 3 -12 -20
-10 -105z"/>
<path d="M5183 2402 c-42 -33 -53 -92 -28 -147 26 -54 101 -73 146 -36 28 22
20 38 -9 22 -37 -20 -79 -13 -101 15 -37 47 -29 54 59 54 79 0 80 0 80 26 0
15 -12 38 -29 55 -34 34 -83 39 -118 11z m98 -21 c4 -3 10 -16 14 -28 6 -22 4
-23 -55 -23 -58 0 -61 1 -58 22 5 38 72 57 99 29z"/>
<path d="M5400 2315 c0 -87 3 -105 15 -105 12 0 15 15 15 73 0 80 10 103 50
112 45 10 55 -7 60 -102 7 -117 25 -111 25 8 0 78 -3 93 -19 105 -23 16 -69
18 -96 4 -13 -7 -21 -7 -25 0 -18 28 -25 0 -25 -95z"/>
<path d="M5822 2313 c2 -64 7 -108 13 -108 6 0 11 44 13 108 2 92 0 107 -13
107 -13 0 -15 -15 -13 -107z"/>
<path d="M5968 2409 c-10 -5 -22 -19 -28 -29 -17 -31 4 -56 59 -75 60 -20 79
-38 61 -60 -18 -22 -77 -19 -97 5 -20 24 -33 26 -33 6 0 -22 49 -56 82 -56 46
0 88 29 88 61 0 31 -24 49 -87 67 -35 10 -43 17 -43 36 0 16 7 26 23 30 34 9
36 8 62 -20 13 -14 29 -23 34 -19 51 31 -69 85 -121 54z"/>
</g>
</svg>
