<?xml version="1.0" standalone="no"?>
<!DOCTYPE svg PUBLIC "-//W3C//DTD SVG 20010904//EN"
 "http://www.w3.org/TR/2001/REC-SVG-20010904/DTD/svg10.dtd">
<svg version="1.0" xmlns="http://www.w3.org/2000/svg"
 width="1080.000000pt" height="1295.000000pt" viewBox="0 0 1080.000000 1295.000000"
 preserveAspectRatio="xMidYMid meet">

<g transform="translate(0.000000,1295.000000) scale(0.100000,-0.100000)"
fill="#000000" stroke="none">
<path d="M4335 9536 c-56 -18 -96 -40 -121 -68 -100 -109 -83 -308 26 -308 15
0 76 25 135 55 147 75 190 73 234 -12 18 -35 14 -133 -8 -173 -36 -68 -62 -75
-276 -75 -143 0 -196 -4 -215 -14 -80 -44 -150 -128 -170 -203 -16 -58 7 -103
65 -129 41 -18 53 -19 113 -10 37 6 147 38 244 71 131 44 191 60 231 60 64 0
101 -23 111 -70 14 -74 -45 -116 -234 -165 -130 -34 -223 -68 -273 -101 -91
-60 -102 -205 -22 -292 31 -34 37 -37 92 -37 78 0 108 20 273 180 158 153 219
191 298 182 37 -4 52 -12 74 -38 49 -59 49 -142 0 -196 -15 -17 -65 -55 -112
-85 -92 -60 -161 -127 -202 -198 -113 -195 -79 -460 66 -515 109 -42 133 -8
151 213 18 206 28 232 92 232 73 0 103 -66 103 -226 0 -135 -12 -193 -60 -289
-76 -153 -158 -234 -249 -243 -100 -9 -225 39 -287 112 -44 51 -67 128 -95
308 -11 79 -30 166 -41 195 -53 142 -193 139 -234 -5 -14 -46 -16 -82 -11
-187 10 -217 61 -367 159 -464 63 -63 89 -77 236 -126 133 -44 172 -71 172
-121 0 -25 -8 -42 -26 -59 -46 -43 -107 -34 -339 50 -138 50 -227 66 -291 53
-110 -24 -126 -147 -34 -252 45 -51 83 -59 260 -60 134 -1 160 -4 195 -21 51
-26 67 -65 39 -96 -10 -11 -49 -38 -85 -60 -88 -51 -100 -82 -53 -133 45 -47
119 -76 199 -76 116 0 152 36 196 197 36 133 67 175 135 188 45 9 83 -22 152
-123 97 -141 156 -192 224 -192 30 0 41 6 58 31 19 25 22 40 18 92 -5 69 -22
109 -110 261 -71 123 -91 181 -91 265 -1 127 52 263 140 361 111 123 293 143
403 43 86 -77 142 -252 111 -346 -13 -40 -62 -87 -90 -87 -19 0 -102 78 -128
120 -35 58 -109 82 -149 49 -74 -61 -70 -238 7 -332 39 -47 82 -69 189 -96
100 -25 123 -43 114 -89 -6 -31 -20 -45 -134 -141 -52 -43 -54 -79 -7 -126 38
-38 125 -61 188 -51 86 14 187 78 225 142 34 57 34 128 3 280 -20 94 -21 111
-9 160 16 67 54 104 107 104 54 0 88 -43 108 -138 47 -223 71 -284 145 -363
69 -73 121 -92 263 -97 65 -2 139 -1 164 3 60 9 103 49 103 97 0 52 -33 75
-152 110 -127 37 -178 66 -218 123 -102 149 -65 305 73 305 48 0 78 -27 132
-120 56 -96 91 -125 140 -116 64 12 125 83 125 144 0 27 -19 58 -107 173 -63
82 -62 135 7 233 57 81 70 110 70 154 0 75 -95 129 -180 103 -48 -14 -93 -66
-149 -170 -58 -107 -103 -149 -178 -167 -75 -18 -118 -17 -180 1 -86 26 -123
92 -93 169 5 14 67 86 138 159 126 131 160 180 202 294 21 56 51 70 131 65 14
-1 57 -23 95 -48 65 -43 72 -45 122 -41 113 11 174 96 118 166 -6 8 -47 46
-91 84 -88 77 -115 111 -115 143 0 34 38 73 104 105 81 41 106 65 106 103 0
61 -114 156 -188 156 -43 0 -99 -39 -176 -124 -126 -138 -163 -144 -306 -44
-78 54 -93 60 -136 60 -94 0 -174 -53 -174 -115 0 -47 27 -78 127 -143 101
-67 123 -98 123 -175 0 -159 -127 -358 -268 -422 -66 -30 -188 -29 -302 2 -47
13 -104 27 -127 32 -123 25 -194 90 -162 147 31 56 66 65 268 73 181 6 260 18
291 42 26 20 50 60 50 84 0 68 -116 164 -207 171 -71 6 -124 -9 -244 -68 -174
-86 -250 -98 -294 -50 -40 45 -13 109 83 193 61 54 124 88 275 147 103 40 181
88 220 134 10 11 36 57 58 101 23 44 53 93 68 108 57 62 154 87 205 53 13 -8
45 -42 70 -74 66 -87 144 -114 216 -77 66 34 74 81 34 196 -23 64 -26 85 -21
159 6 103 30 171 77 221 55 58 140 64 211 16 30 -21 34 -28 33 -68 0 -28 -13
-73 -37 -125 -20 -45 -38 -99 -39 -120 -3 -95 87 -172 194 -165 10 1 33 15 53
32 54 47 63 96 68 364 5 258 1 280 -68 349 -112 112 -433 88 -568 -42 -49 -46
-77 -101 -115 -223 -16 -52 -37 -109 -46 -126 -44 -86 -135 -98 -166 -23 -15
37 -8 123 20 230 49 187 5 309 -112 310 -79 0 -125 -39 -156 -133 -20 -62 -31
-144 -52 -392 -29 -340 -112 -461 -315 -460 -82 1 -126 20 -155 68 -42 68 -16
145 102 311 183 255 250 460 183 558 -52 77 -152 71 -237 -14 -50 -50 -74
-106 -88 -210 -37 -265 -50 -304 -104 -333 -28 -15 -38 -16 -69 -6 -72 24 -88
64 -112 271 -18 159 -27 195 -58 241 -29 44 -105 95 -170 114 -63 19 -264 19
-322 1z"/>
<path d="M2750 4896 l0 -386 90 0 90 0 0 130 0 130 88 0 c108 1 152 10 204 46
120 83 142 259 47 368 -65 74 -117 88 -336 94 l-183 4 0 -386z m337 231 c49
-17 71 -98 45 -162 -18 -43 -39 -53 -126 -61 l-76 -7 0 120 0 120 68 -2 c37 0
77 -4 89 -8z"/>
<path d="M3570 4895 l0 -385 90 0 90 0 0 160 0 160 43 1 c83 2 103 2 185 0
l82 -1 0 -160 0 -160 90 0 90 0 0 385 0 385 -90 0 -90 0 0 -160 0 -160 -155 0
-155 0 0 160 0 160 -90 0 -90 0 0 -385z"/>
<path d="M4890 4895 l0 -385 90 0 90 0 0 160 0 160 155 0 155 0 0 -160 0 -160
90 0 90 0 0 385 0 385 -90 0 -90 0 0 -160 0 -160 -155 0 -155 0 0 160 0 160
-90 0 -90 0 0 -385z"/>
<path d="M6500 5056 c-59 -12 -150 -60 -150 -78 0 -6 9 -26 21 -44 25 -41 59
-45 119 -14 72 37 123 23 140 -38 5 -20 10 -40 10 -43 0 -3 -33 -9 -74 -12
-114 -10 -215 -61 -236 -120 -26 -75 0 -151 62 -183 55 -29 143 -24 211 13 31
17 57 27 57 22 0 -26 42 -49 90 -49 l50 0 0 198 c0 169 -3 203 -19 237 -26 57
-79 101 -141 114 -60 13 -68 13 -140 -3z m138 -362 c-2 -29 -9 -41 -33 -56
-59 -37 -148 -8 -119 40 16 26 74 52 117 52 37 0 38 -1 35 -36z"/>
<path d="M7193 5060 c-17 -4 -46 -16 -63 -27 l-32 -20 -23 23 c-20 20 -35 24
-80 24 l-55 0 0 -275 0 -275 80 0 80 0 1 143 c1 78 1 165 1 192 0 42 4 53 26
69 15 11 42 20 66 20 37 1 43 -2 58 -34 15 -29 18 -64 18 -212 l0 -178 80 0
80 0 0 210 c0 194 -2 212 -21 247 -32 57 -45 69 -100 87 -55 17 -67 18 -116 6z"/>
<path d="M7687 5056 c-90 -24 -147 -88 -147 -162 0 -55 11 -84 49 -121 l30
-30 -30 -29 c-33 -32 -39 -85 -14 -121 14 -20 13 -23 -14 -42 -40 -29 -52 -68
-36 -114 26 -77 86 -102 245 -102 l115 0 56 36 c88 58 121 147 79 216 -28 47
-70 64 -183 74 -54 4 -108 11 -119 15 -38 12 -10 29 58 35 133 12 214 82 214
184 0 38 3 45 19 45 30 0 51 28 51 66 l0 34 -80 0 c-43 0 -105 7 -137 15 -68
18 -92 18 -156 1z m135 -125 c4 -3 10 -21 14 -38 5 -24 1 -36 -15 -52 -38 -38
-118 -22 -122 24 -4 46 2 66 24 75 22 10 86 4 99 -9z m44 -412 c17 -14 18 -43
2 -57 -22 -17 -113 -24 -157 -12 -49 13 -59 31 -40 67 14 25 15 26 97 20 46
-4 90 -11 98 -18z"/>
<path d="M5702 4848 c4 -256 10 -275 99 -321 46 -24 61 -27 104 -22 28 3 70
17 94 31 51 28 51 28 51 9 0 -22 34 -35 95 -35 l55 0 -2 273 -3 272 -82 3 -83
3 0 -195 0 -196 -27 -17 c-31 -20 -97 -23 -115 -5 -9 9 -14 69 -18 210 l-5
197 -83 3 -83 3 3 -213z"/>
<path d="M3325 4681 c-79 -34 -76 -142 4 -172 31 -12 86 6 106 34 23 33 19 90
-8 115 -26 25 -73 35 -102 23z"/>
<path d="M4414 4680 c-50 -20 -70 -93 -39 -137 20 -28 75 -46 106 -34 64 24
84 101 39 146 -28 28 -75 39 -106 25z"/>
<path d="M3405 3880 c-79 -17 -115 -65 -115 -153 0 -75 26 -126 74 -150 46
-21 74 -21 126 -1 53 21 80 72 80 149 0 110 -70 175 -165 155z m106 -58 c49
-55 45 -159 -8 -208 -37 -34 -108 -34 -145 1 -46 42 -58 128 -26 188 32 61
132 72 179 19z"/>
<path d="M3037 3873 c-9 -8 -9 -276 -1 -297 13 -35 24 -13 24 49 l0 65 51 0
c43 0 55 5 80 29 38 39 39 87 3 130 -24 29 -31 31 -88 31 -35 0 -66 -3 -69 -7z
m123 -28 c28 -15 36 -33 30 -75 -3 -30 -37 -52 -81 -54 l-44 -1 -3 73 -3 72
36 0 c20 0 49 -7 65 -15z"/>
<path d="M3670 3720 c0 -100 4 -160 10 -160 6 0 10 32 10 75 l0 75 90 0 89 0
3 -72 c2 -46 7 -73 16 -76 9 -3 12 33 12 157 0 136 -2 161 -15 161 -12 0 -15
-14 -15 -70 l0 -70 -90 0 -90 0 0 70 c0 40 -4 70 -10 70 -6 0 -10 -60 -10
-160z"/>
<path d="M4022 3857 c-24 -26 -29 -74 -9 -99 6 -9 38 -29 69 -43 31 -15 59
-34 61 -43 4 -21 -11 -64 -26 -74 -21 -13 -84 -9 -97 7 -16 19 -30 19 -30 0 0
-9 15 -23 34 -31 69 -33 146 10 146 81 0 38 -26 64 -92 93 -50 22 -66 49 -48
82 14 26 53 35 91 20 35 -15 52 -4 25 16 -32 23 -99 18 -124 -9z"/>
<path d="M4250 3770 c0 -81 4 -118 17 -144 17 -37 64 -66 105 -66 33 0 87 36
98 66 13 32 13 254 1 254 -5 0 -11 -51 -13 -114 -3 -129 -20 -168 -73 -174
-84 -10 -105 25 -105 178 0 91 -3 110 -15 110 -12 0 -15 -19 -15 -110z"/>
<path d="M4644 3843 c-48 -114 -105 -275 -100 -280 10 -10 24 9 39 52 l14 40
72 3 71 3 19 -44 c19 -44 41 -69 41 -47 0 28 -116 310 -127 310 -7 0 -20 -17
-29 -37z m60 -84 c14 -38 26 -72 26 -75 0 -2 -27 -4 -61 -4 -54 0 -60 2 -55
18 33 89 52 132 57 132 4 0 18 -32 33 -71z"/>
<path d="M4872 3723 c4 -195 21 -213 28 -29 l5 129 94 -131 c51 -72 98 -129
102 -126 5 3 9 75 9 160 0 129 -2 154 -15 154 -12 0 -15 -23 -17 -127 l-3
-128 -90 128 c-49 70 -95 127 -103 127 -10 0 -12 -33 -10 -157z"/>
<path d="M5220 3720 c0 -125 3 -161 13 -158 7 3 13 27 14 64 1 32 2 65 2 72 1
10 22 12 89 10 l87 -3 1 -70 c1 -41 6 -71 13 -73 8 -3 11 42 11 157 0 122 -3
161 -12 161 -10 0 -12 -19 -10 -70 l4 -70 -94 0 -93 0 0 67 c0 44 -4 68 -12
71 -10 3 -13 -33 -13 -158z"/>
<path d="M5930 3770 c0 -132 12 -169 63 -193 44 -21 70 -21 108 -1 46 23 59
67 59 194 0 91 -3 110 -15 110 -13 0 -15 -20 -15 -120 0 -115 -1 -122 -25
-145 -30 -31 -83 -33 -116 -6 -23 18 -24 27 -27 145 -3 101 -6 126 -18 126
-11 0 -14 -22 -14 -110z"/>
<path d="M6281 3856 c-17 -18 -22 -33 -19 -62 3 -37 6 -41 71 -73 61 -32 67
-37 67 -66 0 -18 -8 -39 -18 -48 -23 -21 -75 -22 -106 -1 -16 10 -26 11 -31 5
-12 -20 57 -52 99 -47 48 6 75 31 83 79 7 46 -21 81 -79 99 -21 6 -45 20 -55
30 -37 41 29 110 77 80 24 -14 50 -16 50 -2 0 16 -36 30 -78 30 -28 0 -45 -7
-61 -24z"/>
<path d="M6562 3860 c-90 -55 -82 -239 12 -284 18 -9 48 -16 65 -16 38 0 101
29 101 47 0 17 -10 16 -34 -2 -11 -8 -40 -15 -65 -15 -76 1 -114 46 -113 136
0 62 23 101 69 120 42 18 67 18 104 -2 39 -20 52 -9 20 17 -32 26 -115 26
-159 -1z"/>
<path d="M6942 3723 l3 -158 89 0 c63 0 91 4 94 13 3 9 -17 12 -77 12 l-81 0
0 60 0 60 65 0 c51 0 65 3 65 15 0 12 -14 15 -65 15 l-65 0 0 54 c0 63 4 66
96 66 36 0 64 4 64 10 0 6 -38 10 -95 10 l-96 0 3 -157z"/>
<path d="M7220 3719 l0 -162 74 5 c124 8 177 57 177 162 0 111 -50 156 -173
156 l-78 0 0 -161z m113 134 c62 -7 95 -35 108 -91 12 -55 -2 -110 -37 -146
-23 -23 -35 -26 -90 -26 l-64 0 0 133 c0 150 -6 141 83 130z"/>
<path d="M7560 3769 c0 -129 13 -169 65 -193 41 -20 68 -20 104 -2 53 28 61
53 61 186 0 157 -19 159 -23 3 -2 -95 -5 -116 -23 -140 -36 -49 -118 -41 -143
14 -6 13 -11 73 -11 133 0 91 -3 110 -15 110 -12 0 -15 -19 -15 -111z"/>
<path d="M5635 3846 c-85 -38 -120 -156 -72 -247 42 -79 135 -109 222 -70 60
26 53 38 -9 17 -60 -20 -82 -20 -133 3 -69 32 -97 102 -73 187 31 111 180 144
235 51 38 -64 13 -162 -39 -155 -22 3 -24 16 -12 76 4 19 8 39 9 45 1 7 -14
13 -37 15 -31 3 -44 -2 -67 -24 -54 -51 -47 -134 10 -134 16 0 34 7 41 15 11
14 14 13 24 -1 18 -24 65 -14 89 18 26 35 27 113 2 156 -33 55 -122 78 -190
48z m100 -128 c-13 -59 -28 -83 -55 -83 -19 0 -26 6 -28 24 -8 55 18 89 71 90
16 1 18 -4 12 -31z"/>
<path d="M6818 3598 c-7 -19 2 -38 17 -38 15 0 24 19 18 38 -3 6 -11 12 -18
12 -7 0 -15 -6 -17 -12z"/>
</g>
</svg>
